<?xml version="1.0"?>
<svg xmlns="http://www.w3.org/2000/svg" xmlns:xlink="http://www.w3.org/1999/xlink" xmlns:svgjs="http://svgjs.com/svgjs" version="1.1" width="512" height="512" x="0" y="0" viewBox="0 0 24 24" style="enable-background:new 0 0 512 512" xml:space="preserve"><g><circle xmlns="http://www.w3.org/2000/svg" cx="6.5" cy="14.5" r="1.5" fill="#008fff" data-original="#000000"/><path xmlns="http://www.w3.org/2000/svg" d="M18.5,3H5.5A5.506,5.506,0,0,0,0,8.5v7A5.506,5.506,0,0,0,5.5,21h13A5.506,5.506,0,0,0,24,15.5v-7A5.506,5.506,0,0,0,18.5,3ZM5.5,6h13a2.5,2.5,0,0,1,2.449,2H3.051A2.5,2.5,0,0,1,5.5,6Zm13,12H5.5A2.5,2.5,0,0,1,3,15.5V11H21v4.5A2.5,2.5,0,0,1,18.5,18Z" fill="#008fff" data-original="#000000"/></g></svg>
